<?xml version="1.0" encoding="utf-8"?>
<!-- Generator: Adobe Illustrator 27.0.1, SVG Export Plug-In . SVG Version: 6.00 Build 0)  -->
<svg version="1.1" id="Layer_1" xmlns="http://www.w3.org/2000/svg" xmlns:xlink="http://www.w3.org/1999/xlink" x="0px" y="0px"
	 viewBox="0 0 841.9 595.3" style="enable-background:new 0 0 841.9 595.3;" xml:space="preserve">
<style type="text/css">
	.st0{fill-rule:evenodd;clip-rule:evenodd;fill:#D9001D;stroke:#000000;stroke-width:3.9721;stroke-miterlimit:3.8637;}
	.st1{fill-rule:evenodd;clip-rule:evenodd;fill:#002D9B;stroke:#000000;stroke-width:3.9721;stroke-miterlimit:3.8637;}
</style>
<g>
	<path class="st0" d="M189.3,293c0-131.3,106.4-237.7,237.7-237.7S664.7,161.7,664.7,293c0,131.3-106.4,237.7-237.7,237.7
		S189.3,424.3,189.3,293z"/>
	<path class="st1" d="M209.4,293c0-120.2,97.4-217.5,217.6-217.5S644.5,172.8,644.5,293c0,120.2-97.4,217.6-217.5,217.6
		S209.4,413.2,209.4,293z"/>
	<path class="st0" d="M263,281.6v-59.9c0,0,2.5-9.2,9.2-9.2c6.8,0,8.6,7.7,8.6,12.9v36.4C280.8,268.4,273.9,280,263,281.6z
		 M263.9,345.8h-3.4v46l-16.3-10V226.1c0-9.2,12.1-35.9,30.7-35.9c18.6,0,24.4,37.6,24.4,52.8c0,37.8-17.1,46.7-33.5,59.3
		l31.6,107.7v18.2l-14.7-5.8L263.9,345.8z M365.2,128.2v-18.5l-50.5,32v304.6l54.4,35.5v-20.9l-37-24.1V298.5h26.4v-20.3h-26.4
		V150.5L365.2,128.2z M570.9,149.9l46.9,54.5l-8,11.6L591,198.3v79.8h20.8v20.3H591v83.5l18.8-17.6l8,11.6l-46.9,54.5V149.9z
		 M503.1,479V102.2l44.4,29.4v19.3l-24.9-15.3v142.6H543v20.3h-20.3v171L503.1,479z M457.6,491.7h17V96.8h-16.8v290.6l-1.5,0
		l-60.3-286l-11,2.4V490l20,6.2V256.6h1.7L457.6,491.7z"/>
</g>
</svg>
