<svg version="1.1" id="Layer_1" xmlns="http://www.w3.org/2000/svg" xmlns:xlink="http://www.w3.org/1999/xlink" x="0px" y="0px"
	 width="100%" viewBox="0 0 400 394" enable-background="new 0 0 400 394" xml:space="preserve">
<path fill="#FFFEFE" opacity="1.000000" stroke="none" 
	d="
M230.000000,395.000000 
	C153.357315,395.000000 77.214622,395.000000 1.035969,395.000000 
	C1.035969,263.731995 1.035969,132.463989 1.035969,1.097991 
	C134.225952,1.097991 267.452026,1.097991 400.839050,1.097991 
	C400.839050,132.333176 400.839050,263.666565 400.839050,395.000000 
	C344.130737,395.000000 287.315369,395.000000 230.000000,395.000000 
M44.587513,161.865036 
	C43.809227,164.917892 42.733856,167.929535 42.303692,171.030685 
	C40.363182,185.020264 38.493629,199.068451 40.619759,213.183304 
	C42.295792,224.310104 44.172722,235.433197 46.625484,246.409302 
	C49.293934,258.350616 55.081955,269.153625 61.812222,279.177826 
	C68.528000,289.180389 75.994019,298.800720 84.095276,307.712128 
	C90.288887,314.525116 97.624298,320.470276 105.109192,325.894287 
	C113.649384,332.083130 122.375916,338.551636 131.988052,342.608337 
	C149.832214,350.139374 168.331955,355.774567 187.976852,357.437317 
	C205.689392,358.936523 223.227066,358.403503 240.383591,354.458832 
	C256.342712,350.789459 271.667084,344.988434 285.872040,336.305328 
	C298.270386,328.726532 309.885315,320.261566 320.409637,310.318176 
	C334.575134,296.934601 345.055878,280.933441 353.685852,263.518799 
	C362.835815,245.054947 366.850098,225.343140 368.109436,205.111343 
	C369.101532,189.173477 367.620605,173.342834 363.172607,157.736465 
	C358.091156,139.907379 351.132263,123.063469 340.309326,108.036446 
	C332.855896,97.687782 325.176941,87.556236 315.250305,79.146492 
	C296.075867,62.902119 274.782776,50.833042 250.660294,43.878632 
	C221.618179,35.505920 192.236664,34.300873 163.186981,42.882076 
	C148.691299,47.164062 134.502777,53.151352 121.018669,60.022366 
	C104.493027,68.443245 90.579048,80.668091 78.370552,94.746849 
	C61.618309,114.065437 50.446056,136.148285 44.587513,161.865036 
z"/>
<path fill="#E80715" opacity="1.000000" stroke="none" 
	d="
M44.747768,161.481323 
	C50.446056,136.148285 61.618309,114.065437 78.370552,94.746849 
	C90.579048,80.668091 104.493027,68.443245 121.018669,60.022366 
	C134.502777,53.151352 148.691299,47.164062 163.186981,42.882076 
	C192.236664,34.300873 221.618179,35.505920 250.660294,43.878632 
	C274.782776,50.833042 296.075867,62.902119 315.250305,79.146492 
	C325.176941,87.556236 332.855896,97.687782 340.309326,108.036446 
	C351.132263,123.063469 358.091156,139.907379 363.172607,157.736465 
	C367.620605,173.342834 369.101532,189.173477 368.109436,205.111343 
	C366.850098,225.343140 362.835815,245.054947 353.685852,263.518799 
	C345.055878,280.933441 334.575134,296.934601 320.409637,310.318176 
	C309.885315,320.261566 298.270386,328.726532 285.872040,336.305328 
	C271.667084,344.988434 256.342712,350.789459 240.383591,354.458832 
	C223.227066,358.403503 205.689392,358.936523 187.976852,357.437317 
	C168.331955,355.774567 149.832214,350.139374 131.988052,342.608337 
	C122.375916,338.551636 113.649384,332.083130 105.109192,325.894287 
	C97.624298,320.470276 90.288887,314.525116 84.095276,307.712128 
	C75.994019,298.800720 68.528000,289.180389 61.812222,279.177826 
	C55.081955,269.153625 49.293934,258.350616 46.625484,246.409302 
	C44.172722,235.433197 42.295792,224.310104 40.619759,213.183304 
	C38.493629,199.068451 40.363182,185.020264 42.303692,171.030685 
	C42.733856,167.929535 43.809227,164.917892 44.747768,161.481323 
M320.899170,287.405853 
	C323.924194,283.244598 327.125305,279.198944 329.945404,274.903168 
	C347.098572,248.774368 356.970245,220.393921 353.858032,188.834961 
	C352.529205,175.360535 349.670135,161.855988 345.846405,148.853302 
	C340.774902,131.607407 330.622925,117.042320 318.981689,103.292427 
	C306.921417,89.047585 292.356018,78.132652 276.164093,69.685616 
	C260.743073,61.640747 244.527573,55.625813 226.716202,53.501209 
	C206.347168,51.071518 186.456512,52.478832 166.774872,56.804169 
	C152.139786,60.020451 138.605255,66.707016 125.637535,74.307800 
	C111.580490,82.547081 99.660355,93.322426 89.323479,105.775345 
	C74.902718,123.148155 64.808647,142.735107 59.474850,164.842300 
	C54.900906,183.800110 54.423527,202.879669 57.774334,221.840561 
	C60.370441,236.530899 64.760551,250.844727 72.436577,264.020172 
	C86.046516,287.380829 102.836700,307.592468 126.723915,321.033508 
	C152.927795,335.778137 180.555954,344.501617 211.222244,342.301117 
	C226.101135,341.233459 240.500519,338.907745 254.524811,333.951569 
	C280.740875,324.686768 302.540344,309.118988 320.899170,287.405853 
z"/>
<path fill="#07246B" opacity="1.000000" stroke="none" 
	d="
M320.664307,287.672394 
	C302.540344,309.118988 280.740875,324.686768 254.524811,333.951569 
	C240.500519,338.907745 226.101135,341.233459 211.222244,342.301117 
	C180.555954,344.501617 152.927795,335.778137 126.723915,321.033508 
	C102.836700,307.592468 86.046516,287.380829 72.436577,264.020172 
	C64.760551,250.844727 60.370441,236.530899 57.774334,221.840561 
	C54.423527,202.879669 54.900906,183.800110 59.474850,164.842300 
	C64.808647,142.735107 74.902718,123.148155 89.323479,105.775345 
	C99.660355,93.322426 111.580490,82.547081 125.637535,74.307800 
	C138.605255,66.707016 152.139786,60.020451 166.774872,56.804169 
	C186.456512,52.478832 206.347168,51.071518 226.716202,53.501209 
	C244.527573,55.625813 260.743073,61.640747 276.164093,69.685616 
	C292.356018,78.132652 306.921417,89.047585 318.981689,103.292427 
	C330.622925,117.042320 340.774902,131.607407 345.846405,148.853302 
	C349.670135,161.855988 352.529205,175.360535 353.858032,188.834961 
	C356.970245,220.393921 347.098572,248.774368 329.945404,274.903168 
	C327.125305,279.198944 323.924194,283.244598 320.664307,287.672394 
M198.193436,292.499939 
	C198.193436,261.820679 198.193436,231.141449 198.193436,200.462204 
	C198.795242,200.409225 199.397034,200.356262 199.998840,200.303284 
	C200.649933,203.450378 201.555435,206.569275 201.907806,209.749451 
	C203.389114,223.119034 204.577560,236.521561 206.110123,249.884857 
	C208.707275,272.530548 211.493744,295.154510 214.171097,317.791107 
	C214.497650,320.551971 213.917130,323.878662 218.278214,323.765228 
	C223.946075,323.617828 228.689636,320.597137 228.676147,316.959412 
	C228.636917,306.372620 228.298111,295.785736 228.343811,285.200043 
	C228.393204,273.762268 228.884506,262.326508 228.939850,250.888672 
	C229.214676,194.087387 229.412506,137.285721 229.628723,80.484138 
	C229.662064,71.722847 229.640884,71.723694 221.030930,69.912415 
	C220.706207,69.844101 220.381165,69.750008 220.075623,69.621834 
	C216.072510,67.942528 215.034241,69.879539 215.068756,73.529289 
	C215.158020,82.968170 215.063934,92.408867 215.164352,101.847549 
	C215.342560,118.604301 215.654083,135.359680 215.819962,152.116531 
	C215.888870,159.076172 215.772095,166.038879 215.652069,172.998688 
	C215.585129,176.879913 215.338150,180.758011 215.172318,184.637527 
	C214.615295,184.659317 214.058273,184.681107 213.501251,184.702911 
	C213.250900,184.004791 212.863800,183.324341 212.770905,182.605850 
	C211.558517,173.229721 210.320099,163.856140 209.219376,154.466537 
	C205.987335,126.896255 202.800369,99.320663 199.634598,71.742691 
	C199.215408,68.090851 197.356491,66.803307 193.835876,67.650162 
	C192.714371,67.919914 191.539978,68.238289 190.412552,68.168182 
	C185.656723,67.872490 184.142456,69.932907 184.150681,74.714989 
	C184.288788,155.042007 184.258209,235.369293 184.289551,315.696533 
	C184.293091,324.800568 184.390564,324.655273 192.921265,326.369781 
	C197.299927,327.249756 198.727188,325.607849 198.628113,321.471344 
	C198.404816,312.149384 198.329254,302.823914 198.193436,292.499939 
M120.623810,203.245346 
	C133.467789,191.987900 136.599640,176.831604 136.964249,160.891159 
	C137.187714,151.122238 136.440903,141.305069 135.655701,131.547729 
	C135.078873,124.379807 133.335907,117.434769 128.283310,111.819916 
	C123.653389,106.674744 115.961731,104.966713 110.152443,108.624870 
	C98.916336,115.700363 91.766914,124.880447 92.008034,139.420364 
	C92.371620,161.344925 91.360443,183.292847 90.905479,205.230255 
	C90.543472,222.685455 89.990311,240.138306 89.813232,257.595154 
	C89.716240,267.157410 96.543121,272.964294 102.576363,279.066528 
	C102.699730,279.191315 103.188805,278.954559 103.981956,278.784973 
	C104.439156,268.879395 104.902840,258.833221 105.366524,248.787033 
	C105.848228,248.765625 106.329933,248.744202 106.811646,248.722794 
	C107.171982,249.383163 107.742409,250.007904 107.861412,250.709229 
	C109.915848,262.817230 111.938217,274.930817 113.916885,287.051483 
	C115.099319,294.294769 125.002754,304.016998 132.971512,305.349976 
	C132.770996,302.804657 132.767334,300.315552 132.354996,297.896088 
	C127.418343,268.928162 122.474747,239.961090 117.364738,211.023514 
	C116.791267,207.776016 117.383751,205.504532 120.623810,203.245346 
M293.081482,252.502075 
	C292.957520,237.709641 292.910736,222.915848 292.654724,208.125702 
	C292.591553,204.477020 293.997925,202.972733 297.557922,202.882751 
	C302.199249,202.765427 306.832214,202.291840 311.473297,202.199188 
	C314.377960,202.141220 315.856293,201.118958 315.616882,198.049042 
	C315.474792,196.226883 315.999390,194.203552 315.365845,192.612488 
	C314.778046,191.136459 313.187561,189.277649 311.798004,189.048950 
	C307.557007,188.350952 303.200806,188.161423 298.887939,188.143890 
	C294.352661,188.125458 292.473511,186.568222 292.513062,181.631073 
	C292.666504,162.485306 292.360596,143.336075 292.332733,124.188011 
	C292.331085,123.060753 293.016174,121.306374 293.839050,120.973114 
	C294.733093,120.611038 296.638916,121.196495 297.279144,122.014259 
	C300.956909,126.711678 304.544922,131.497406 307.852966,136.460129 
	C310.157318,139.917145 311.963684,143.706100 314.177582,147.678864 
	C315.103546,146.566528 315.672638,146.202042 315.679291,145.827591 
	C315.803162,138.842865 315.905731,131.856766 315.875031,124.871544 
	C315.871094,123.973228 315.257507,122.957436 314.665527,122.199821 
	C305.303345,110.217850 294.510651,99.702881 282.163422,90.813286 
	C281.161377,90.091820 279.902130,89.727531 278.707886,89.171928 
	C278.707886,160.644073 278.707886,231.698029 278.707886,303.778809 
	C281.476837,302.749359 283.441498,302.547791 284.645477,301.484741 
	C291.983398,295.005646 299.160431,288.343781 306.368378,281.718079 
	C317.995209,271.030396 318.291138,257.528748 315.945068,242.228928 
	C314.276550,244.573151 313.110657,246.113647 312.047363,247.721985 
	C307.374664,254.789825 302.793762,261.919800 298.008301,268.910004 
	C297.320343,269.914948 295.698395,270.280548 294.508698,270.942017 
	C294.021271,269.781250 293.158997,268.635315 293.112488,267.457184 
	C292.929169,262.809601 293.001923,258.151917 293.081482,252.502075 
M157.162903,208.991837 
	C157.898773,202.930435 158.897842,202.068817 165.010727,202.141373 
	C166.341904,202.157150 167.674011,202.056213 169.006012,202.044571 
	C177.500122,201.970322 177.423218,201.971344 177.668808,193.578629 
	C177.777100,189.878387 176.279358,188.534073 172.595947,188.712601 
	C169.135025,188.880371 165.646393,188.354919 162.168594,188.331207 
	C158.787643,188.308136 157.516708,186.939743 157.684875,183.440369 
	C157.978989,177.320572 157.818970,171.178665 157.839218,165.046005 
	C157.913452,142.563736 158.146042,120.079941 157.933746,97.600357 
	C157.884521,92.388329 159.637848,89.485840 164.459595,88.018616 
	C168.109039,86.908112 171.816391,85.843040 175.265091,84.252716 
	C180.108826,82.019089 177.218384,77.528831 177.368256,74.072021 
	C177.388260,73.610825 173.114609,72.069504 171.250717,72.576782 
	C163.567398,74.667908 156.058945,77.395111 148.460419,79.807251 
	C144.944351,80.923424 143.641586,83.048531 143.671112,86.848747 
	C143.815536,105.430588 143.839172,124.016663 143.601868,142.597351 
	C143.302338,166.048660 142.655014,189.495300 142.255875,212.945618 
	C141.728928,243.905167 141.349075,274.867310 140.766113,305.825714 
	C140.682785,310.251343 142.252228,313.239044 146.306747,314.809845 
	C154.030258,317.802002 161.745331,320.827820 169.554794,323.582001 
	C174.669952,325.386017 176.618652,323.928772 177.058197,318.512421 
	C177.179077,317.022919 176.974655,315.504272 177.128922,314.020752 
	C177.532394,310.141113 175.776672,308.294983 172.019028,307.462158 
	C168.313507,306.640839 164.757355,305.155426 161.122040,304.004333 
	C158.256836,303.097046 156.713196,301.406372 156.774124,298.181274 
	C156.936798,289.572357 156.937424,280.960083 156.966476,272.349030 
	C157.036713,251.531647 157.086441,230.714188 157.162903,208.991837 
M237.354584,126.520470 
	C237.405548,138.162094 237.615585,149.805710 237.470001,161.444885 
	C237.254227,178.695847 236.543060,195.942871 236.487793,213.192993 
	C236.419876,234.396317 236.844315,255.600906 236.989532,276.805389 
	C237.083069,290.462280 237.036285,304.120117 237.113968,317.777191 
	C237.122711,319.314850 237.532501,320.850220 237.752731,322.361908 
	C250.191086,320.935394 251.696976,319.937408 251.807281,311.939392 
	C251.961166,300.780914 251.829407,289.617065 251.714890,278.456604 
	C251.474182,254.998474 251.177704,231.540894 250.869888,208.083527 
	C250.826111,204.747238 252.527588,203.167480 255.670959,202.959442 
	C257.329315,202.849686 259.001648,202.956207 260.667694,202.957123 
	C269.299866,202.961884 270.691101,201.354950 270.187408,192.772339 
	C269.971954,189.101273 268.434418,187.747299 264.810455,188.141541 
	C261.868896,188.461548 258.878235,188.493210 255.915573,188.415451 
	C252.026108,188.313354 250.407776,186.299408 250.661880,182.287384 
	C250.945648,177.807404 250.709656,173.294449 250.699127,168.795853 
	C250.644577,145.485001 250.437515,122.173042 250.607864,98.863846 
	C250.678909,89.142563 252.149124,88.528160 260.667877,93.277603 
	C263.699646,94.967888 266.694275,96.724716 270.750671,99.050133 
	C270.750671,94.709755 270.428223,91.862946 270.820587,89.118324 
	C271.545074,84.050858 268.595673,82.353546 264.525391,81.272163 
	C257.308350,79.354736 250.123322,77.316551 242.903336,75.410561 
	C241.411194,75.016655 239.824814,74.979622 237.376083,74.659805 
	C237.376083,92.107903 237.376083,108.816879 237.354584,126.520470 
z"/>
<path fill="#E40211" opacity="1.000000" stroke="none" 
	d="
M198.193512,292.999878 
	C198.329254,302.823914 198.404816,312.149384 198.628113,321.471344 
	C198.727188,325.607849 197.299927,327.249756 192.921265,326.369781 
	C184.390564,324.655273 184.293091,324.800568 184.289551,315.696533 
	C184.258209,235.369293 184.288788,155.042007 184.150681,74.714989 
	C184.142456,69.932907 185.656723,67.872490 190.412552,68.168182 
	C191.539978,68.238289 192.714371,67.919914 193.835876,67.650162 
	C197.356491,66.803307 199.215408,68.090851 199.634598,71.742691 
	C202.800369,99.320663 205.987335,126.896255 209.219376,154.466537 
	C210.320099,163.856140 211.558517,173.229721 212.770905,182.605850 
	C212.863800,183.324341 213.250900,184.004791 213.501251,184.702911 
	C214.058273,184.681107 214.615295,184.659317 215.172318,184.637527 
	C215.338150,180.758011 215.585129,176.879913 215.652069,172.998688 
	C215.772095,166.038879 215.888870,159.076172 215.819962,152.116531 
	C215.654083,135.359680 215.342560,118.604301 215.164352,101.847549 
	C215.063934,92.408867 215.158020,82.968170 215.068756,73.529289 
	C215.034241,69.879539 216.072510,67.942528 220.075623,69.621834 
	C220.381165,69.750008 220.706207,69.844101 221.030930,69.912415 
	C229.640884,71.723694 229.662064,71.722847 229.628723,80.484138 
	C229.412506,137.285721 229.214676,194.087387 228.939850,250.888672 
	C228.884506,262.326508 228.393204,273.762268 228.343811,285.200043 
	C228.298111,295.785736 228.636917,306.372620 228.676147,316.959412 
	C228.689636,320.597137 223.946075,323.617828 218.278214,323.765228 
	C213.917130,323.878662 214.497650,320.551971 214.171097,317.791107 
	C211.493744,295.154510 208.707275,272.530548 206.110123,249.884857 
	C204.577560,236.521561 203.389114,223.119034 201.907806,209.749451 
	C201.555435,206.569275 200.649933,203.450378 199.998840,200.303284 
	C199.397034,200.356262 198.795242,200.409225 198.193436,200.462204 
	C198.193436,231.141449 198.193436,261.820679 198.193512,292.999878 
z"/>
<path fill="#E40210" opacity="1.000000" stroke="none" 
	d="
M120.346039,203.488266 
	C117.383751,205.504532 116.791267,207.776016 117.364738,211.023514 
	C122.474747,239.961090 127.418343,268.928162 132.354996,297.896088 
	C132.767334,300.315552 132.770996,302.804657 132.971512,305.349976 
	C125.002754,304.016998 115.099319,294.294769 113.916885,287.051483 
	C111.938217,274.930817 109.915848,262.817230 107.861412,250.709229 
	C107.742409,250.007904 107.171982,249.383163 106.811646,248.722794 
	C106.329933,248.744202 105.848228,248.765625 105.366524,248.787033 
	C104.902840,258.833221 104.439156,268.879395 103.981956,278.784973 
	C103.188805,278.954559 102.699730,279.191315 102.576363,279.066528 
	C96.543121,272.964294 89.716240,267.157410 89.813232,257.595154 
	C89.990311,240.138306 90.543472,222.685455 90.905479,205.230255 
	C91.360443,183.292847 92.371620,161.344925 92.008034,139.420364 
	C91.766914,124.880447 98.916336,115.700363 110.152443,108.624870 
	C115.961731,104.966713 123.653389,106.674744 128.283310,111.819916 
	C133.335907,117.434769 135.078873,124.379807 135.655701,131.547729 
	C136.440903,141.305069 137.187714,151.122238 136.964249,160.891159 
	C136.599640,176.831604 133.467789,191.987900 120.346039,203.488266 
M106.907959,154.256424 
	C106.654701,164.360367 106.323105,174.463501 106.220390,184.568970 
	C106.201889,186.388824 107.125671,188.218262 107.614410,190.043274 
	C109.395981,189.087006 111.286125,188.282150 112.915527,187.113708 
	C113.794479,186.483398 114.468231,185.310867 114.821564,184.245972 
	C116.841713,178.157288 120.109917,172.085724 120.372719,165.898682 
	C120.832634,155.071106 119.618095,144.145630 118.605057,133.307907 
	C118.430847,131.444168 115.371704,128.154678 114.350670,128.404709 
	C111.936401,128.995911 109.541847,131.002563 107.927765,133.056503 
	C106.854279,134.422516 106.909134,136.851852 106.864113,138.814545 
	C106.753403,143.640808 106.876755,148.472458 106.907959,154.256424 
z"/>
<path fill="#E20212" opacity="1.000000" stroke="none" 
	d="
M293.030579,253.000031 
	C293.001923,258.151917 292.929169,262.809601 293.112488,267.457184 
	C293.158997,268.635315 294.021271,269.781250 294.508698,270.942017 
	C295.698395,270.280548 297.320343,269.914948 298.008301,268.910004 
	C302.793762,261.919800 307.374664,254.789825 312.047363,247.721985 
	C313.110657,246.113647 314.276550,244.573151 315.945068,242.228928 
	C318.291138,257.528748 317.995209,271.030396 306.368378,281.718079 
	C299.160431,288.343781 291.983398,295.005646 284.645477,301.484741 
	C283.441498,302.547791 281.476837,302.749359 278.707886,303.778809 
	C278.707886,231.698029 278.707886,160.644073 278.707886,89.171928 
	C279.902130,89.727531 281.161377,90.091820 282.163422,90.813286 
	C294.510651,99.702881 305.303345,110.217850 314.665527,122.199821 
	C315.257507,122.957436 315.871094,123.973228 315.875031,124.871544 
	C315.905731,131.856766 315.803162,138.842865 315.679291,145.827591 
	C315.672638,146.202042 315.103546,146.566528 314.177582,147.678864 
	C311.963684,143.706100 310.157318,139.917145 307.852966,136.460129 
	C304.544922,131.497406 300.956909,126.711678 297.279144,122.014259 
	C296.638916,121.196495 294.733093,120.611038 293.839050,120.973114 
	C293.016174,121.306374 292.331085,123.060753 292.332733,124.188011 
	C292.360596,143.336075 292.666504,162.485306 292.513062,181.631073 
	C292.473511,186.568222 294.352661,188.125458 298.887939,188.143890 
	C303.200806,188.161423 307.557007,188.350952 311.798004,189.048950 
	C313.187561,189.277649 314.778046,191.136459 315.365845,192.612488 
	C315.999390,194.203552 315.474792,196.226883 315.616882,198.049042 
	C315.856293,201.118958 314.377960,202.141220 311.473297,202.199188 
	C306.832214,202.291840 302.199249,202.765427 297.557922,202.882751 
	C293.997925,202.972733 292.591553,204.477020 292.654724,208.125702 
	C292.910736,222.915848 292.957520,237.709641 293.030579,253.000031 
z"/>
<path fill="#E30211" opacity="1.000000" stroke="none" 
	d="
M157.153671,209.444305 
	C157.086441,230.714188 157.036713,251.531647 156.966476,272.349030 
	C156.937424,280.960083 156.936798,289.572357 156.774124,298.181274 
	C156.713196,301.406372 158.256836,303.097046 161.122040,304.004333 
	C164.757355,305.155426 168.313507,306.640839 172.019028,307.462158 
	C175.776672,308.294983 177.532394,310.141113 177.128922,314.020752 
	C176.974655,315.504272 177.179077,317.022919 177.058197,318.512421 
	C176.618652,323.928772 174.669952,325.386017 169.554794,323.582001 
	C161.745331,320.827820 154.030258,317.802002 146.306747,314.809845 
	C142.252228,313.239044 140.682785,310.251343 140.766113,305.825714 
	C141.349075,274.867310 141.728928,243.905167 142.255875,212.945618 
	C142.655014,189.495300 143.302338,166.048660 143.601868,142.597351 
	C143.839172,124.016663 143.815536,105.430588 143.671112,86.848747 
	C143.641586,83.048531 144.944351,80.923424 148.460419,79.807251 
	C156.058945,77.395111 163.567398,74.667908 171.250717,72.576782 
	C173.114609,72.069504 177.388260,73.610825 177.368256,74.072021 
	C177.218384,77.528831 180.108826,82.019089 175.265091,84.252716 
	C171.816391,85.843040 168.109039,86.908112 164.459595,88.018616 
	C159.637848,89.485840 157.884521,92.388329 157.933746,97.600357 
	C158.146042,120.079941 157.913452,142.563736 157.839218,165.046005 
	C157.818970,171.178665 157.978989,177.320572 157.684875,183.440369 
	C157.516708,186.939743 158.787643,188.308136 162.168594,188.331207 
	C165.646393,188.354919 169.135025,188.880371 172.595947,188.712601 
	C176.279358,188.534073 177.777100,189.878387 177.668808,193.578629 
	C177.423218,201.971344 177.500122,201.970322 169.006012,202.044571 
	C167.674011,202.056213 166.341904,202.157150 165.010727,202.141373 
	C158.897842,202.068817 157.898773,202.930435 157.153671,209.444305 
z"/>
<path fill="#E20211" opacity="1.000000" stroke="none" 
	d="
M237.365326,126.023163 
	C237.376083,108.816879 237.376083,92.107903 237.376083,74.659805 
	C239.824814,74.979622 241.411194,75.016655 242.903336,75.410561 
	C250.123322,77.316551 257.308350,79.354736 264.525391,81.272163 
	C268.595673,82.353546 271.545074,84.050858 270.820587,89.118324 
	C270.428223,91.862946 270.750671,94.709755 270.750671,99.050133 
	C266.694275,96.724716 263.699646,94.967888 260.667877,93.277603 
	C252.149124,88.528160 250.678909,89.142563 250.607864,98.863846 
	C250.437515,122.173042 250.644577,145.485001 250.699127,168.795853 
	C250.709656,173.294449 250.945648,177.807404 250.661880,182.287384 
	C250.407776,186.299408 252.026108,188.313354 255.915573,188.415451 
	C258.878235,188.493210 261.868896,188.461548 264.810455,188.141541 
	C268.434418,187.747299 269.971954,189.101273 270.187408,192.772339 
	C270.691101,201.354950 269.299866,202.961884 260.667694,202.957123 
	C259.001648,202.956207 257.329315,202.849686 255.670959,202.959442 
	C252.527588,203.167480 250.826111,204.747238 250.869888,208.083527 
	C251.177704,231.540894 251.474182,254.998474 251.714890,278.456604 
	C251.829407,289.617065 251.961166,300.780914 251.807281,311.939392 
	C251.696976,319.937408 250.191086,320.935394 237.752731,322.361908 
	C237.532501,320.850220 237.122711,319.314850 237.113968,317.777191 
	C237.036285,304.120117 237.083069,290.462280 236.989532,276.805389 
	C236.844315,255.600906 236.419876,234.396317 236.487793,213.192993 
	C236.543060,195.942871 237.254227,178.695847 237.470001,161.444885 
	C237.615585,149.805710 237.405548,138.162094 237.365326,126.023163 
z"/>
<path fill="#0C2369" opacity="1.000000" stroke="none" 
	d="
M106.906967,153.779175 
	C106.876755,148.472458 106.753403,143.640808 106.864113,138.814545 
	C106.909134,136.851852 106.854279,134.422516 107.927765,133.056503 
	C109.541847,131.002563 111.936401,128.995911 114.350670,128.404709 
	C115.371704,128.154678 118.430847,131.444168 118.605057,133.307907 
	C119.618095,144.145630 120.832634,155.071106 120.372719,165.898682 
	C120.109917,172.085724 116.841713,178.157288 114.821564,184.245972 
	C114.468231,185.310867 113.794479,186.483398 112.915527,187.113708 
	C111.286125,188.282150 109.395981,189.087006 107.614410,190.043274 
	C107.125671,188.218262 106.201889,186.388824 106.220390,184.568970 
	C106.323105,174.463501 106.654701,164.360367 106.906967,153.779175 
z"/>
</svg>